<svg width="150" height="79" viewBox="0 0 150 79" fill="none" xmlns="http://www.w3.org/2000/svg">
<path fill-rule="evenodd" clip-rule="evenodd" d="M95.8633 8.82107C95.2085 8.82141 94.5807 9.08139 94.1178 9.54386C93.655 10.0063 93.395 10.6334 93.395 11.2873C93.395 12.1457 93.8151 12.8996 94.4816 13.3403L86.1055 31.2906L87.8547 7.3881C88.4868 7.33054 89.0724 7.03238 89.4903 6.5554C89.9082 6.07841 90.1264 5.45916 90.0996 4.82593C90.0728 4.1927 89.8031 3.59404 89.3464 3.15397C88.8896 2.7139 88.2809 2.46615 87.6463 2.46206C86.9914 2.46206 86.3633 2.7218 85.9002 3.18417C85.4371 3.64654 85.1768 4.27367 85.1767 4.92764C85.1767 5.99932 85.863 6.89421 86.8188 7.23372L81.0726 30.5719L78.2304 4.82707C78.7525 4.69009 79.2144 4.38395 79.5436 3.95665C79.8728 3.52935 80.0508 3.00504 80.0495 2.4659C80.0495 1.8119 79.7894 1.18469 79.3263 0.722246C78.8632 0.2598 78.2351 0 77.5803 0C76.9254 0 76.2973 0.2598 75.8342 0.722246C75.3711 1.18469 75.111 1.8119 75.111 2.4659C75.111 3.69773 76.0206 4.69063 77.2015 4.87447L74.9096 29.9569L68.2506 7.30738C68.6493 7.10073 68.9833 6.78865 69.2164 6.40522C69.4494 6.0218 69.5724 5.58179 69.572 5.13326C69.572 4.47927 69.3119 3.85205 68.8488 3.38961C68.3857 2.92716 67.7576 2.66736 67.1027 2.66736C66.4479 2.66736 65.8198 2.92716 65.3567 3.38961C64.8936 3.85205 64.6335 4.47927 64.6335 5.13326C64.6335 5.78735 64.8937 6.41464 65.3568 6.87715C65.8199 7.33965 66.4481 7.59949 67.1031 7.59949C67.1377 7.59949 67.1768 7.59564 67.2115 7.59372L70.082 31.2906L60.4089 14.0501C60.7384 13.7922 60.9969 13.4548 61.16 13.0697C61.3231 12.6845 61.3854 12.2643 61.3412 11.8485C61.297 11.4327 61.1476 11.035 60.9071 10.6927C60.6667 10.3504 60.343 10.0747 59.9665 9.8917C59.5901 9.70865 59.1732 9.62419 58.7551 9.64626C58.3369 9.66833 57.9313 9.7962 57.5763 10.0179C57.2212 10.2395 56.9284 10.5477 56.7255 10.9134C56.5225 11.2791 56.4159 11.6904 56.4158 12.1085C56.4158 12.4769 56.4985 12.8407 56.6577 13.173C56.8169 13.5053 57.0487 13.7978 57.3359 14.029C57.6232 14.2601 57.9587 14.4241 58.3178 14.5088C58.6768 14.5935 59.0503 14.5967 59.4108 14.5184L67.5136 38.7776C69.3629 44.4199 85.7976 44.523 88.2633 38.7776L95.5804 13.7234C95.6817 13.7362 95.7587 13.7535 95.8639 13.7535C96.1882 13.7535 96.5094 13.6897 96.809 13.5658C97.1086 13.4418 97.3809 13.2602 97.6102 13.0312C97.8395 12.8022 98.0214 12.5303 98.1455 12.2311C98.2696 11.9319 98.3335 11.6112 98.3335 11.2873C98.3335 10.9634 98.2696 10.6427 98.1455 10.3435C98.0214 10.0443 97.8395 9.77242 97.6102 9.54341C97.3809 9.3144 97.1086 9.13274 96.809 9.0088C96.5094 8.88486 96.1876 8.82107 95.8633 8.82107ZM77.6832 41.372C73.4952 41.372 70.1006 40.112 70.1006 38.5579C70.1006 37.0026 73.4952 36.2724 77.6832 36.2724C81.8713 36.2724 84.8226 37.0026 84.8226 38.5579C84.8226 40.112 81.8713 41.372 77.6832 41.372Z" fill="white"/>
<path fill-rule="evenodd" clip-rule="evenodd" d="M45.5631 52.3252C37.0285 52.3252 31.7013 58.8937 31.6718 65.0765C31.6333 73.0806 36.9541 78.1283 45.3026 78.1283C54.1701 78.1283 59.3145 73.1619 59.3145 64.6762C59.3145 58.3876 53.7628 52.3252 45.5631 52.3252ZM0 53.026V55.8285H2.42533C3.90966 55.8285 4.42988 56.1738 4.42988 57.4697V73.3643C4.42988 74.6237 3.90966 75.1061 2.42533 75.1061H0V77.7279H13.992V75.1061H12.0677C10.584 75.1061 10.0631 74.6237 10.0631 73.3637V66.2776H12.5481C15.2198 66.2776 17.1711 67.7862 17.3192 70.6015L17.5598 73.8448C17.7086 76.8087 19.708 78.4089 23.2328 78.4089C26.9802 78.4089 27.8628 76.5775 27.8628 72.7237V70.6617H25.7781V71.923C25.7781 73.4418 24.8954 74.2253 24.1552 74.2253C22.9666 74.2253 22.9063 72.775 22.8319 71.923V70.9019C22.8319 67.5165 21.2751 66.1828 19.3238 65.1566C22.9602 64.3046 25.3778 62.1318 25.3778 59.1313C25.3778 55.2398 22.7094 53.026 17.9607 53.026H0ZM89.5828 53.026V55.8285H92.0287C93.5123 55.8285 94.0332 56.1546 94.0332 57.4498V73.404C94.0332 74.6647 93.513 75.1458 92.0287 75.1458H89.5828V77.7279H114.58V67.1386H112.214C112.214 72.3631 110.15 75.1061 106.661 75.1061H99.6459V66.6184H101.029C103.293 66.6184 104.577 67.6094 104.577 69.4606V70.9423H107.283V59.1717H104.577V60.4721C104.577 62.2913 103.219 63.395 101.029 63.395H99.6459V55.8285H106.18C110.968 55.8285 111.953 58.5824 112.214 62.6949H114.58V53.026H89.5828ZM120.814 53.0459V55.8285C124.409 55.931 125.308 56.3436 126.607 58.0103L132.42 65.0567L124.502 73.3643C123.092 74.9587 122.967 75.1061 120.814 75.1061V77.7683H133.342V75.1061H130.335C129.445 75.1061 129.273 74.4655 129.273 73.985C129.273 73.5033 129.895 72.9364 130.155 72.6033L134.565 67.619L138.995 72.864C139.217 73.16 139.576 73.495 139.576 73.8646C139.576 74.3463 139.166 75.1061 138.313 75.1061H135.828V77.7683H150V75.1061C147.761 75.1061 147.579 74.9952 145.57 72.5437L138.173 63.8357L143.204 58.3908C145.059 56.4268 145.782 55.8285 147.414 55.8285H149.999V53.0459H137.451V55.8285H139.095C139.712 55.9227 140.113 56.5549 139.496 57.1699L136.008 61.153L133.242 57.7701C132.626 57.052 132.713 55.8285 133.843 55.8285H135.126V53.0459H120.814ZM63.0831 53.0862V55.8279H65.0074C66.4918 55.8279 67.012 56.2737 67.012 57.5703V73.404C67.012 74.6647 66.4918 75.1458 65.0074 75.1458H63.0831V77.7881H86.4961V66.9387H83.8302C83.7552 71.1985 83.793 75.1061 78.5979 75.1061H72.6645V57.5703C72.6645 56.2737 73.186 55.8279 74.669 55.8279H76.8942V53.0862H63.0831ZM45.6035 55.5076C49.982 55.5076 52.5389 58.7842 52.5389 65.1566C52.5389 71.3817 49.9269 75.206 45.3629 75.206C40.9106 75.206 38.3672 71.2318 38.3672 64.8965C38.3672 58.7079 41.0395 55.5082 45.6028 55.5082L45.6035 55.5076ZM10.0631 55.8087H13.9118C17.622 55.8087 18.9633 57.0232 18.9633 59.4318C18.9633 61.914 17.5091 63.0747 14.3929 63.0747H10.0631V55.8087Z" fill="white"/>
</svg>
